<?xml version="1.0" encoding="UTF-8"?>
<!DOCTYPE svg PUBLIC "-//W3C//DTD SVG 1.1//EN" "http://www.w3.org/Graphics/SVG/1.1/DTD/svg11.dtd">
<svg xmlns="http://www.w3.org/2000/svg" version="1.1" width="500px" height="500px" style="shape-rendering:geometricPrecision; text-rendering:geometricPrecision; image-rendering:optimizeQuality; fill-rule:evenodd; clip-rule:evenodd" xmlns:xlink="http://www.w3.org/1999/xlink">
<g><path style="opacity:0.314" fill="#817d80" d="M 249.5,109.5 C 246.944,110.543 244.777,112.21 243,114.5C 239.88,118.759 237.046,123.093 234.5,127.5C 234.167,127.5 233.833,127.5 233.5,127.5C 236.46,120.429 240.794,114.262 246.5,109C 247.749,108.26 248.749,108.427 249.5,109.5 Z"/></g>
<g><path style="opacity:0.039" fill="#615f5f" d="M 249.5,112.5 C 249.198,115.373 248.531,118.039 247.5,120.5C 247.111,117.447 247.777,114.78 249.5,112.5 Z"/></g>
<g><path style="opacity:0.998" fill="#f9f9f9" d="M 249.5,109.5 C 249.5,110.5 249.5,111.5 249.5,112.5C 247.777,114.78 247.111,117.447 247.5,120.5C 246.79,125.702 246.124,131.035 245.5,136.5C 247.023,138.466 248.356,140.466 249.5,142.5C 248.72,145.709 248.886,148.709 250,151.5C 250.333,151.167 250.667,150.833 251,150.5C 252.049,152.618 253.549,154.284 255.5,155.5C 259.492,161.828 263.492,168.162 267.5,174.5C 267.92,176.094 268.586,177.594 269.5,179C 268.813,180.162 268.647,181.328 269,182.5C 270.011,181.663 271.178,181.33 272.5,181.5C 272.579,182.93 272.246,184.264 271.5,185.5C 272.365,185.564 273.365,185.897 274.5,186.5C 276.717,189.058 277.883,192.058 278,195.5C 280.623,197.015 281.623,199.015 281,201.5C 282.926,203.539 285.093,205.206 287.5,206.5C 287.345,209.716 288.345,212.383 290.5,214.5C 295.761,227.911 297.594,241.911 296,256.5C 295.758,260.43 294.925,264.097 293.5,267.5C 290.461,272.647 288.794,278.313 288.5,284.5C 288.672,285.492 288.338,286.158 287.5,286.5C 285.179,288.09 284.179,290.423 284.5,293.5C 283.094,293.973 282.427,294.973 282.5,296.5C 279.267,294.762 278.267,295.429 279.5,298.5C 279.167,299.167 278.833,299.833 278.5,300.5C 277.575,299.359 276.741,299.359 276,300.5C 275.503,302.81 275.337,305.143 275.5,307.5C 273.926,307.937 272.759,308.937 272,310.5C 271.76,308.148 270.927,306.148 269.5,304.5C 269.663,302.143 269.497,299.81 269,297.5C 268.617,296.944 268.117,296.611 267.5,296.5C 267.5,295.833 267.5,295.167 267.5,294.5C 267.834,291.509 266.834,289.176 264.5,287.5C 265.412,277.847 265.579,268.18 265,258.5C 264.844,255.809 264.011,253.476 262.5,251.5C 262.446,247.056 261.446,242.889 259.5,239C 260.506,236.462 259.506,234.962 256.5,234.5C 256.167,233.167 255.833,231.833 255.5,230.5C 255.379,227.895 254.379,225.895 252.5,224.5C 251.805,221.085 250.138,218.418 247.5,216.5C 246.662,216.158 246.328,215.492 246.5,214.5C 242.957,207.741 239.623,200.741 236.5,193.5C 235.817,193.137 235.15,192.804 234.5,192.5C 233.429,188.17 231.762,184.17 229.5,180.5C 229.889,177.447 229.223,174.78 227.5,172.5C 224.861,163.267 224.861,153.933 227.5,144.5C 228.67,142.35 229.67,140.016 230.5,137.5C 232.196,135.475 233.863,133.475 235.5,131.5C 235.154,130.151 234.821,128.817 234.5,127.5C 237.046,123.093 239.88,118.759 243,114.5C 244.777,112.21 246.944,110.543 249.5,109.5 Z"/></g>
<g><path style="opacity:0.999" fill="#cecacb" d="M 233.5,127.5 C 233.833,127.5 234.167,127.5 234.5,127.5C 234.821,128.817 235.154,130.151 235.5,131.5C 233.863,133.475 232.196,135.475 230.5,137.5C 229.67,140.016 228.67,142.35 227.5,144.5C 228.122,138.275 230.122,132.608 233.5,127.5 Z"/></g>
<g><path style="opacity:0.992" fill="#b5b0af" d="M 247.5,120.5 C 247.511,127.899 248.178,135.233 249.5,142.5C 248.356,140.466 247.023,138.466 245.5,136.5C 246.124,131.035 246.79,125.702 247.5,120.5 Z"/></g>
<g><path style="opacity:0.855" fill="#c6c4c3" d="M 249.5,142.5 C 251.753,146.675 253.753,151.009 255.5,155.5C 253.549,154.284 252.049,152.618 251,150.5C 250.667,150.833 250.333,151.167 250,151.5C 248.886,148.709 248.72,145.709 249.5,142.5 Z"/></g>
<g><path style="opacity:0.384" fill="#9f9d9d" d="M 227.5,172.5 C 229.223,174.78 229.889,177.447 229.5,180.5C 227.96,178.162 227.294,175.495 227.5,172.5 Z"/></g>
<g><path style="opacity:0.876" fill="#c2bdbd" d="M 267.5,174.5 C 269.9,176.296 271.567,178.63 272.5,181.5C 271.178,181.33 270.011,181.663 269,182.5C 268.647,181.328 268.813,180.162 269.5,179C 268.586,177.594 267.92,176.094 267.5,174.5 Z"/></g>
<g><path style="opacity:0.235" fill="#8d8b8b" d="M 229.5,180.5 C 231.762,184.17 233.429,188.17 234.5,192.5C 233.21,191.942 232.377,190.942 232,189.5C 231.151,186.479 230.317,183.479 229.5,180.5 Z"/></g>
<g><path style="opacity:0.957" fill="#d2d0d0" d="M 272.5,181.5 C 278.768,189.029 283.768,197.362 287.5,206.5C 285.093,205.206 282.926,203.539 281,201.5C 281.623,199.015 280.623,197.015 278,195.5C 277.883,192.058 276.717,189.058 274.5,186.5C 273.365,185.897 272.365,185.564 271.5,185.5C 272.246,184.264 272.579,182.93 272.5,181.5 Z"/></g>
<g><path style="opacity:0.118" fill="#8f8c8d" d="M 234.5,192.5 C 235.15,192.804 235.817,193.137 236.5,193.5C 239.623,200.741 242.957,207.741 246.5,214.5C 241.225,207.884 237.225,200.551 234.5,192.5 Z"/></g>
<g><path style="opacity:0.322" fill="#a5a1a3" d="M 287.5,206.5 C 288.871,208.936 289.871,211.603 290.5,214.5C 288.345,212.383 287.345,209.716 287.5,206.5 Z"/></g>
<g><path style="opacity:0.396" fill="#7d7879" d="M 207.5,214.5 C 207.649,213.448 207.483,212.448 207,211.5C 201.27,217.062 195.77,222.729 190.5,228.5C 193.206,223.614 196.539,219.114 200.5,215C 203.029,212.971 205.696,211.138 208.5,209.5C 209.894,211.582 209.561,213.249 207.5,214.5 Z"/></g>
<g><path style="opacity:0.133" fill="#9d9697" d="M 247.5,216.5 C 250.138,218.418 251.805,221.085 252.5,224.5C 250.347,222.206 248.68,219.54 247.5,216.5 Z"/></g>
<g><path style="opacity:0.404" fill="#989390" d="M 207.5,214.5 C 203.444,224.652 200.444,234.986 198.5,245.5C 198.55,237.296 199.884,229.296 202.5,221.5C 203.84,218.843 205.507,216.51 207.5,214.5 Z"/></g>
<g><path style="opacity:0.396" fill="#999797" d="M 252.5,224.5 C 254.379,225.895 255.379,227.895 255.5,230.5C 253.461,229.089 252.461,227.089 252.5,224.5 Z"/></g>
<g><path style="opacity:0.278" fill="#767070" d="M 308.5,225.5 C 307.881,228.977 307.881,232.644 308.5,236.5C 307.008,232.736 306.008,228.736 305.5,224.5C 306.791,224.263 307.791,224.596 308.5,225.5 Z"/></g>
<g><path style="opacity:0.952" fill="#aeaaaa" d="M 249.5,269.5 C 249.248,266.68 249.748,264.014 251,261.5C 252.632,251.266 251.299,241.599 247,232.5C 244.56,231.726 243.227,230.06 243,227.5C 242.667,230.5 242.333,233.5 242,236.5C 241.617,237.056 241.117,237.389 240.5,237.5C 240.5,236.167 240.5,234.833 240.5,233.5C 240.335,230.482 240.502,227.482 241,224.5C 242.049,223.483 243.216,223.316 244.5,224C 251.655,235.122 254.488,247.289 253,260.5C 252.495,263.865 251.328,266.865 249.5,269.5 Z"/></g>
<g><path style="opacity:0.948" fill="#ccc7c7" d="M 308.5,225.5 C 310.262,226.262 311.262,227.596 311.5,229.5C 311.427,231.027 312.094,232.027 313.5,232.5C 314.89,233.899 315.89,235.566 316.5,237.5C 314.717,236.886 313.384,235.72 312.5,234C 311.552,233.517 310.552,233.351 309.5,233.5C 309.5,234.5 309.5,235.5 309.5,236.5C 309.167,236.5 308.833,236.5 308.5,236.5C 307.881,232.644 307.881,228.977 308.5,225.5 Z"/></g>
<g><path style="opacity:0.067" fill="#595959" d="M 311.5,229.5 C 312.906,229.973 313.573,230.973 313.5,232.5C 312.094,232.027 311.427,231.027 311.5,229.5 Z"/></g>
<g><path style="opacity:0.998" fill="#f9f9f9" d="M 207.5,214.5 C 205.507,216.51 203.84,218.843 202.5,221.5C 199.884,229.296 198.55,237.296 198.5,245.5C 196.824,262.599 197.491,279.599 200.5,296.5C 200.312,298.103 200.812,299.437 202,300.5C 203.43,297.647 204.263,294.647 204.5,291.5C 205.458,291.047 206.292,290.381 207,289.5C 208.396,286.936 209.563,284.269 210.5,281.5C 211.906,281.027 212.573,280.027 212.5,278.5C 212.5,277.833 212.833,277.5 213.5,277.5C 214.5,277.5 215.5,277.5 216.5,277.5C 217.043,274.962 218.043,272.628 219.5,270.5C 221.132,269.554 222.799,268.554 224.5,267.5C 226.879,263.471 229.212,259.471 231.5,255.5C 231.328,254.508 231.662,253.842 232.5,253.5C 233.906,253.027 234.573,252.027 234.5,250.5C 237.892,249.01 239.226,246.343 238.5,242.5C 239.309,240.972 239.976,239.306 240.5,237.5C 241.117,237.389 241.617,237.056 242,236.5C 242.333,233.5 242.667,230.5 243,227.5C 243.227,230.06 244.56,231.726 247,232.5C 251.299,241.599 252.632,251.266 251,261.5C 249.748,264.014 249.248,266.68 249.5,269.5C 249.5,270.167 249.5,270.833 249.5,271.5C 247.907,272.348 246.74,273.681 246,275.5C 245.517,276.448 245.351,277.448 245.5,278.5C 244.127,278.343 242.793,278.51 241.5,279C 244.051,280.516 243.718,281.349 240.5,281.5C 239.115,281.512 239.115,282.512 240.5,284.5C 238.818,285.833 237.151,287 235.5,288C 236.167,288.333 236.833,288.667 237.5,289C 234.732,289.708 233.899,291.208 235,293.5C 234.282,292.549 233.449,292.383 232.5,293C 232.205,295.814 232.205,298.647 232.5,301.5C 231.85,301.804 231.183,302.137 230.5,302.5C 229.511,305.438 228.844,308.438 228.5,311.5C 228.5,312.5 228.5,313.5 228.5,314.5C 226.631,316.635 225.964,319.302 226.5,322.5C 226.5,329.167 226.5,335.833 226.5,342.5C 226.377,349.292 227.21,355.959 229,362.5C 230.468,363.989 231.968,365.323 233.5,366.5C 234.167,366.5 234.5,366.833 234.5,367.5C 234.025,370.313 235.025,372.313 237.5,373.5C 238.338,373.842 238.672,374.508 238.5,375.5C 238.427,377.027 239.094,378.027 240.5,378.5C 240.414,379.496 240.748,380.329 241.5,381C 238.854,381.497 236.187,381.664 233.5,381.5C 227.563,380.858 222.23,378.858 217.5,375.5C 216.223,372.448 213.89,371.115 210.5,371.5C 209.508,371.672 208.842,371.338 208.5,370.5C 208.027,369.094 207.027,368.427 205.5,368.5C 205.027,367.094 204.027,366.427 202.5,366.5C 201.306,365.728 200.306,364.728 199.5,363.5C 198.606,360.454 198.439,357.454 199,354.5C 198.333,355.833 197.333,356.833 196,357.5C 194.87,351.831 191.703,349.165 186.5,349.5C 183.521,343.217 180.188,337.217 176.5,331.5C 175.883,331.389 175.383,331.056 175,330.5C 174.151,327.479 173.317,324.479 172.5,321.5C 172.735,316.454 171.735,311.787 169.5,307.5C 167.744,293.949 168.411,280.616 171.5,267.5C 173.472,264.916 174.472,261.916 174.5,258.5C 174.5,258.167 174.5,257.833 174.5,257.5C 176.773,254.602 178.273,254.936 179,258.5C 180.11,256.603 180.276,254.77 179.5,253C 181.569,252.676 181.902,251.842 180.5,250.5C 181.248,248.668 182.248,247.001 183.5,245.5C 182.873,244.583 182.539,243.583 182.5,242.5C 185.348,237.982 188.014,233.315 190.5,228.5C 195.77,222.729 201.27,217.062 207,211.5C 207.483,212.448 207.649,213.448 207.5,214.5 Z"/></g>
<g><path style="opacity:0.645" fill="#9f9c9c" d="M 256.5,234.5 C 259.506,234.962 260.506,236.462 259.5,239C 261.446,242.889 262.446,247.056 262.5,251.5C 260.527,245.919 258.527,240.252 256.5,234.5 Z"/></g>
<g><path style="opacity:0.169" fill="#7f7073" d="M 240.5,233.5 C 240.5,234.833 240.5,236.167 240.5,237.5C 239.976,239.306 239.309,240.972 238.5,242.5C 238.42,239.219 239.087,236.219 240.5,233.5 Z"/></g>
<g><path style="opacity:0.827" fill="#aeabac" d="M 190.5,228.5 C 188.014,233.315 185.348,237.982 182.5,242.5C 182.167,242.5 181.833,242.5 181.5,242.5C 183.506,237.145 186.506,232.479 190.5,228.5 Z"/></g>
<g><path style="opacity:0.998" fill="#f9f9f9" d="M 316.5,237.5 C 317.404,238.209 317.737,239.209 317.5,240.5C 318.027,243.231 318.86,245.898 320,248.5C 320.377,249.942 321.21,250.942 322.5,251.5C 322.947,256.654 324.28,261.32 326.5,265.5C 326.171,268.228 326.837,270.562 328.5,272.5C 330.088,286.572 329.588,300.572 327,314.5C 325.678,319.032 324.178,323.365 322.5,327.5C 319.593,329.315 318.259,331.981 318.5,335.5C 318.5,335.833 318.5,336.167 318.5,336.5C 316.391,337.391 314.391,338.558 312.5,340C 313.022,340.561 313.355,341.228 313.5,342C 312.115,343.597 311.449,345.43 311.5,347.5C 308.871,351.463 305.871,355.129 302.5,358.5C 301.5,358.833 300.833,359.5 300.5,360.5C 297.356,361.172 294.356,362.172 291.5,363.5C 291.5,364.833 291.5,366.167 291.5,367.5C 290.167,367.5 288.833,367.5 287.5,367.5C 286.969,370.779 284.969,372.113 281.5,371.5C 281.5,372.5 281.5,373.5 281.5,374.5C 281.167,374.5 280.833,374.5 280.5,374.5C 278.326,374.75 276.659,375.75 275.5,377.5C 274.432,378.434 273.099,378.768 271.5,378.5C 264.653,380.641 257.653,381.475 250.5,381C 252.883,380.935 253.55,380.102 252.5,378.5C 253.456,376.925 254.123,375.258 254.5,373.5C 255.906,373.027 256.573,372.027 256.5,370.5C 257.584,367.996 258.917,365.663 260.5,363.5C 261.376,363.631 262.043,363.298 262.5,362.5C 263.392,359.716 264.558,357.05 266,354.5C 266.718,355.451 267.551,355.617 268.5,355C 267.556,352.281 267.223,349.448 267.5,346.5C 267.5,345.833 267.5,345.167 267.5,344.5C 269.28,343.01 269.946,341.01 269.5,338.5C 270.117,338.389 270.617,338.056 271,337.5C 271.74,331.842 272.406,326.175 273,320.5C 275.664,319.002 277.83,317.002 279.5,314.5C 282.89,310.782 286.223,307.115 289.5,303.5C 291.997,302.871 293.33,301.204 293.5,298.5C 294.906,298.027 295.573,297.027 295.5,295.5C 297.606,294.434 299.106,292.767 300,290.5C 301.264,290.64 302.431,290.64 303.5,290.5C 302.653,288.939 302.986,287.439 304.5,286C 303.291,282.975 303.791,280.141 306,277.5C 307.131,278.604 307.965,278.271 308.5,276.5C 307.593,273.579 307.26,270.579 307.5,267.5C 307.216,265.585 307.549,263.919 308.5,262.5C 309.268,261.737 309.768,260.737 310,259.5C 310.731,251.798 310.564,244.131 309.5,236.5C 309.5,235.5 309.5,234.5 309.5,233.5C 310.552,233.351 311.552,233.517 312.5,234C 313.384,235.72 314.717,236.886 316.5,237.5 Z"/></g>
<g><path style="opacity:0.745" fill="#968f8e" d="M 317.5,240.5 C 320.11,243.632 321.777,247.299 322.5,251.5C 321.21,250.942 320.377,249.942 320,248.5C 318.86,245.898 318.027,243.231 317.5,240.5 Z"/></g>
<g><path style="opacity:0.588" fill="#b7b3b5" d="M 238.5,242.5 C 239.226,246.343 237.892,249.01 234.5,250.5C 235.326,247.515 236.659,244.849 238.5,242.5 Z"/></g>
<g><path style="opacity:0.184" fill="#a49ea2" d="M 308.5,236.5 C 308.833,236.5 309.167,236.5 309.5,236.5C 310.564,244.131 310.731,251.798 310,259.5C 309.768,260.737 309.268,261.737 308.5,262.5C 309.833,253.833 309.833,245.167 308.5,236.5 Z"/></g>
<g><path style="opacity:0.071" fill="#575555" d="M 234.5,250.5 C 234.573,252.027 233.906,253.027 232.5,253.5C 232.427,251.973 233.094,250.973 234.5,250.5 Z"/></g>
<g><path style="opacity:1" fill="#dddbd9" d="M 181.5,242.5 C 181.833,242.5 182.167,242.5 182.5,242.5C 182.539,243.583 182.873,244.583 183.5,245.5C 182.248,247.001 181.248,248.668 180.5,250.5C 181.902,251.842 181.569,252.676 179.5,253C 180.276,254.77 180.11,256.603 179,258.5C 178.273,254.936 176.773,254.602 174.5,257.5C 176.05,252.07 178.384,247.07 181.5,242.5 Z"/></g>
<g><path style="opacity:0.282" fill="#918d8c" d="M 174.5,258.5 C 174.472,261.916 173.472,264.916 171.5,267.5C 171.928,264.215 172.928,261.215 174.5,258.5 Z"/></g>
<g><path style="opacity:0.788" fill="#bab4b6" d="M 322.5,251.5 C 324.435,255.895 325.769,260.562 326.5,265.5C 324.28,261.32 322.947,256.654 322.5,251.5 Z"/></g>
<g><path style="opacity:0.395" fill="#a19e9d" d="M 262.5,251.5 C 264.011,253.476 264.844,255.809 265,258.5C 265.579,268.18 265.412,277.847 264.5,287.5C 263.751,275.649 263.084,263.649 262.5,251.5 Z"/></g>
<g><path style="opacity:0.992" fill="#c5c2c3" d="M 231.5,255.5 C 229.212,259.471 226.879,263.471 224.5,267.5C 222.799,268.554 221.132,269.554 219.5,270.5C 223.271,265.278 227.271,260.278 231.5,255.5 Z"/></g>
<g><path style="opacity:0.255" fill="#7a7979" d="M 326.5,265.5 C 327.612,267.599 328.279,269.933 328.5,272.5C 326.837,270.562 326.171,268.228 326.5,265.5 Z"/></g>
<g><path style="opacity:0.925" fill="#b0adab" d="M 219.5,270.5 C 218.043,272.628 217.043,274.962 216.5,277.5C 215.5,277.5 214.5,277.5 213.5,277.5C 214.757,274.573 216.757,272.239 219.5,270.5 Z"/></g>
<g><path style="opacity:0.588" fill="#a8a5a4" d="M 293.5,267.5 C 293.207,273.675 291.541,279.342 288.5,284.5C 288.794,278.313 290.461,272.647 293.5,267.5 Z"/></g>
<g><path style="opacity:0.961" fill="#a8a4a4" d="M 249.5,271.5 C 247.76,276.747 245.093,281.414 241.5,285.5C 241.567,284.041 241.234,282.708 240.5,281.5C 243.718,281.349 244.051,280.516 241.5,279C 242.793,278.51 244.127,278.343 245.5,278.5C 245.351,277.448 245.517,276.448 246,275.5C 246.74,273.681 247.907,272.348 249.5,271.5 Z"/></g>
<g><path style="opacity:0.176" fill="#707070" d="M 212.5,278.5 C 212.573,280.027 211.906,281.027 210.5,281.5C 210.427,279.973 211.094,278.973 212.5,278.5 Z"/></g>
<g><path style="opacity:0.133" fill="#726e6e" d="M 210.5,281.5 C 209.563,284.269 208.396,286.936 207,289.5C 206.292,290.381 205.458,291.047 204.5,291.5C 205.579,287.575 207.579,284.242 210.5,281.5 Z"/></g>
<g><path style="opacity:1" fill="#dbd6d6" d="M 240.5,281.5 C 241.234,282.708 241.567,284.041 241.5,285.5C 238.989,291.197 235.989,296.53 232.5,301.5C 232.205,298.647 232.205,295.814 232.5,293C 233.449,292.383 234.282,292.549 235,293.5C 233.899,291.208 234.732,289.708 237.5,289C 236.833,288.667 236.167,288.333 235.5,288C 237.151,287 238.818,285.833 240.5,284.5C 239.115,282.512 239.115,281.512 240.5,281.5 Z"/></g>
<g><path style="opacity:1" fill="#d0cfcf" d="M 307.5,267.5 C 307.26,270.579 307.593,273.579 308.5,276.5C 307.965,278.271 307.131,278.604 306,277.5C 303.791,280.141 303.291,282.975 304.5,286C 302.986,287.439 302.653,288.939 303.5,290.5C 302.431,290.64 301.264,290.64 300,290.5C 299.106,292.767 297.606,294.434 295.5,295.5C 300.864,286.739 304.864,277.406 307.5,267.5 Z"/></g>
<g><path style="opacity:0.176" fill="#908f8a" d="M 287.5,286.5 C 286.736,289.018 285.736,291.351 284.5,293.5C 284.179,290.423 285.179,288.09 287.5,286.5 Z"/></g>
<g><path style="opacity:0.208" fill="#8a8988" d="M 264.5,287.5 C 266.834,289.176 267.834,291.509 267.5,294.5C 265.935,292.491 264.935,290.157 264.5,287.5 Z"/></g>
<g><path style="opacity:0.416" fill="#9a9393" d="M 204.5,291.5 C 204.263,294.647 203.43,297.647 202,300.5C 200.812,299.437 200.312,298.103 200.5,296.5C 202.182,295.173 203.515,293.506 204.5,291.5 Z"/></g>
<g><path style="opacity:0.024" fill="#4c4c4c" d="M 284.5,293.5 C 284.573,295.027 283.906,296.027 282.5,296.5C 282.427,294.973 283.094,293.973 284.5,293.5 Z"/></g>
<g><path style="opacity:0.161" fill="#676767" d="M 295.5,295.5 C 295.573,297.027 294.906,298.027 293.5,298.5C 293.427,296.973 294.094,295.973 295.5,295.5 Z"/></g>
<g><path style="opacity:0.98" fill="#b6b1b4" d="M 282.5,296.5 C 280.913,300.683 278.579,304.35 275.5,307.5C 275.337,305.143 275.503,302.81 276,300.5C 276.741,299.359 277.575,299.359 278.5,300.5C 278.833,299.833 279.167,299.167 279.5,298.5C 278.267,295.429 279.267,294.762 282.5,296.5 Z"/></g>
<g><path style="opacity:0.035" fill="#766d6b" d="M 267.5,296.5 C 268.117,296.611 268.617,296.944 269,297.5C 269.497,299.81 269.663,302.143 269.5,304.5C 268.469,302.039 267.802,299.373 267.5,296.5 Z"/></g>
<g><path style="opacity:0.443" fill="#908f8f" d="M 293.5,298.5 C 293.33,301.204 291.997,302.871 289.5,303.5C 290.604,301.611 291.937,299.945 293.5,298.5 Z"/></g>
<g><path style="opacity:0.776" fill="#a49f9f" d="M 232.5,301.5 C 232.066,305.277 230.733,308.61 228.5,311.5C 228.844,308.438 229.511,305.438 230.5,302.5C 231.183,302.137 231.85,301.804 232.5,301.5 Z"/></g>
<g><path style="opacity:0.008" fill="#979596" d="M 269.5,304.5 C 270.927,306.148 271.76,308.148 272,310.5C 272.759,308.937 273.926,307.937 275.5,307.5C 274.559,311.536 272.725,312.203 270,309.5C 269.506,307.866 269.34,306.199 269.5,304.5 Z"/></g>
<g><path style="opacity:0.11" fill="#949394" d="M 169.5,307.5 C 171.735,311.787 172.735,316.454 172.5,321.5C 170.77,317.117 169.77,312.45 169.5,307.5 Z"/></g>
<g><path style="opacity:0.031" fill="#7d7c7a" d="M 228.5,314.5 C 228.198,317.373 227.531,320.039 226.5,322.5C 225.964,319.302 226.631,316.635 228.5,314.5 Z"/></g>
<g><path style="opacity:0.486" fill="#b0aeaf" d="M 279.5,314.5 C 277.83,317.002 275.664,319.002 273,320.5C 272.406,326.175 271.74,331.842 271,337.5C 270.617,338.056 270.117,338.389 269.5,338.5C 270.076,332.515 270.576,326.515 271,320.5C 273.629,318.112 276.462,316.112 279.5,314.5 Z"/></g>
<g><path style="opacity:0.471" fill="#aca8a9" d="M 322.5,327.5 C 322.104,330.721 320.771,333.388 318.5,335.5C 318.259,331.981 319.593,329.315 322.5,327.5 Z"/></g>
<g><path style="opacity:0.784" fill="#a39ea0" d="M 176.5,331.5 C 180.188,337.217 183.521,343.217 186.5,349.5C 181.927,344.243 178.594,338.243 176.5,331.5 Z"/></g>
<g><path style="opacity:0.957" fill="#c3bfbf" d="M 318.5,336.5 C 316.527,340.457 314.194,344.124 311.5,347.5C 311.449,345.43 312.115,343.597 313.5,342C 313.355,341.228 313.022,340.561 312.5,340C 314.391,338.558 316.391,337.391 318.5,336.5 Z"/></g>
<g><path style="opacity:0.392" fill="#7d7a7b" d="M 269.5,338.5 C 269.946,341.01 269.28,343.01 267.5,344.5C 267.595,342.214 268.262,340.214 269.5,338.5 Z"/></g>
<g><path style="opacity:1" fill="#e0ddde" d="M 186.5,349.5 C 191.703,349.165 194.87,351.831 196,357.5C 197.333,356.833 198.333,355.833 199,354.5C 198.439,357.454 198.606,360.454 199.5,363.5C 197.97,362.789 196.637,361.789 195.5,360.5C 195.5,358.5 194.5,357.5 192.5,357.5C 190.115,355.116 188.115,352.45 186.5,349.5 Z"/></g>
<g><path style="opacity:0.141" fill="#595858" d="M 192.5,357.5 C 194.5,357.5 195.5,358.5 195.5,360.5C 194.167,359.833 193.167,358.833 192.5,357.5 Z"/></g>
<g><path style="opacity:0.004" fill="#3d3a3a" d="M 302.5,358.5 C 302.5,359.833 301.833,360.5 300.5,360.5C 300.833,359.5 301.5,358.833 302.5,358.5 Z"/></g>
<g><path style="opacity:0.973" fill="#bcb9b8" d="M 226.5,342.5 C 227.989,350.646 230.323,358.646 233.5,366.5C 231.968,365.323 230.468,363.989 229,362.5C 227.21,355.959 226.377,349.292 226.5,342.5 Z"/></g>
<g><path style="opacity:0.627" fill="#bab8b7" d="M 267.5,346.5 C 267.223,349.448 267.556,352.281 268.5,355C 267.551,355.617 266.718,355.451 266,354.5C 264.558,357.05 263.392,359.716 262.5,362.5C 262.043,363.298 261.376,363.631 260.5,363.5C 262.658,357.676 264.991,352.01 267.5,346.5 Z"/></g>
<g><path style="opacity:0.031" fill="#686868" d="M 202.5,366.5 C 204.027,366.427 205.027,367.094 205.5,368.5C 203.973,368.573 202.973,367.906 202.5,366.5 Z"/></g>
<g><path style="opacity:0.898" fill="#b7aeaf" d="M 300.5,360.5 C 295.297,366.703 288.964,371.37 281.5,374.5C 281.5,373.5 281.5,372.5 281.5,371.5C 284.969,372.113 286.969,370.779 287.5,367.5C 288.833,367.5 290.167,367.5 291.5,367.5C 291.5,366.167 291.5,364.833 291.5,363.5C 294.356,362.172 297.356,361.172 300.5,360.5 Z"/></g>
<g><path style="opacity:0.125" fill="#897778" d="M 205.5,368.5 C 207.027,368.427 208.027,369.094 208.5,370.5C 206.973,370.573 205.973,369.906 205.5,368.5 Z"/></g>
<g><path style="opacity:0.459" fill="#908c8c" d="M 234.5,367.5 C 235.492,369.456 236.492,371.456 237.5,373.5C 235.025,372.313 234.025,370.313 234.5,367.5 Z"/></g>
<g><path style="opacity:0.939" fill="#bebdbd" d="M 210.5,371.5 C 213.89,371.115 216.223,372.448 217.5,375.5C 214.454,375.275 212.121,373.942 210.5,371.5 Z"/></g>
<g><path style="opacity:0.082" fill="#707070" d="M 256.5,370.5 C 256.573,372.027 255.906,373.027 254.5,373.5C 254.427,371.973 255.094,370.973 256.5,370.5 Z"/></g>
<g><path style="opacity:0.047" fill="#5a5959" d="M 280.5,374.5 C 279.341,376.25 277.674,377.25 275.5,377.5C 276.659,375.75 278.326,374.75 280.5,374.5 Z"/></g>
<g><path style="opacity:0.075" fill="#626262" d="M 238.5,375.5 C 239.906,375.973 240.573,376.973 240.5,378.5C 239.094,378.027 238.427,377.027 238.5,375.5 Z"/></g>
<g><path style="opacity:0.404" fill="#827a7b" d="M 240.5,378.5 C 241.837,379.315 242.837,380.482 243.5,382C 242.975,382.692 242.308,383.192 241.5,383.5C 238.689,382.92 236.023,382.254 233.5,381.5C 236.187,381.664 238.854,381.497 241.5,381C 240.748,380.329 240.414,379.496 240.5,378.5 Z"/></g>
<g><path style="opacity:0.059" fill="#a29ea0" d="M 254.5,373.5 C 254.123,375.258 253.456,376.925 252.5,378.5C 253.55,380.102 252.883,380.935 250.5,381C 257.653,381.475 264.653,380.641 271.5,378.5C 270.158,379.793 268.491,380.626 266.5,381C 260.513,381.998 254.513,382.832 248.5,383.5C 249.272,379.402 251.272,376.069 254.5,373.5 Z"/></g>
</svg>
